<svg xmlns="http://www.w3.org/2000/svg" width="760" height="832" viewBox="0 0 760 832" role="img" aria-label="Homepage — overlay menu (mobile) wireframe"><title>Homepage — overlay menu (mobile)</title><rect width="760" height="832" fill="#e9e9ea" /><text x="44" y="40" font-family="Helvetica Neue, Helvetica, Arial, sans-serif" font-size="19" font-weight="700" fill="#2c2c2e">Homepage — overlay menu (mobile)</text><text x="44" y="62" font-family="Helvetica Neue, Helvetica, Arial, sans-serif" font-size="11.5" fill="#8a8a8f">Mobile 390px · the nav toggle opens the full-width menu below 900px</text><text x="716" y="40" font-family="Helvetica Neue, Helvetica, Arial, sans-serif" font-size="10.5" font-weight="700" fill="#b4b4b8" text-anchor="end" letter-spacing="1.8">FORMFIX &#183; WIREFRAME</text><text x="716" y="62" font-family="SFMono-Regular, Menlo, Consolas, monospace" font-size="10" fill="#b4b4b8" text-anchor="end">m02-home-menu-mobile.svg</text><rect x="185.0" y="96" width="390" height="690" rx="22" fill="#ffffff" stroke="#c2c2c6" stroke-width="1.4" /><path d="M185.0 118 a22 22 0 0 1 22 -22 h346 a22 22 0 0 1 22 22 v12 h-390 z" fill="#f0f0f1" stroke="#c2c2c6" /><rect x="346.0" y="103" width="68" height="13" rx="6.5" fill="#dcdcdf" /><text x="201.0" y="118" font-family="Helvetica Neue, Helvetica, Arial, sans-serif" font-size="9.5" font-weight="600" fill="#8a8a8f">9:41</text><line x1="185.0" y1="130" x2="575.0" y2="130" stroke="#c2c2c6" /><g clip-path="url(#clip)"><rect x="185.0" y="130.0" width="390.0" height="760.0" rx="0" fill="#e4e4e6" stroke="none" /><rect x="205.0" y="142.0" width="350.0" height="54.0" rx="27" fill="#ffffff" stroke="#c2c2c6" stroke-width="1" /><rect x="221.0" y="157.0" width="26.0" height="24.0" rx="4" fill="#ebebec" stroke="#c2c2c6" stroke-width="1" /><text x="255.0" y="175.0" font-family="Helvetica Neue, Helvetica, Arial, sans-serif" font-size="12" font-weight="800" fill="#2c2c2e" text-anchor="start">FORMFIX</text><rect x="509.0" y="158.0" width="26.0" height="22.0" rx="4" fill="#ebebec" stroke="#c2c2c6" stroke-width="1" /><line x1="515.0" y1="165.0" x2="529.0" y2="165.0" stroke="#2c2c2e" stroke-width="1.6" stroke-linecap="round" /><line x1="515.0" y1="173.0" x2="529.0" y2="173.0" stroke="#2c2c2e" stroke-width="1.6" stroke-linecap="round" /><rect x="205.0" y="208.0" width="350.0" height="420.0" rx="5" fill="#ffffff" stroke="#c2c2c6" stroke-width="1" /><text x="231.0" y="258.0" font-family="Helvetica Neue, Helvetica, Arial, sans-serif" font-size="16" font-weight="600" fill="#2c2c2e" text-anchor="start">How It Works</text><line x1="231.0" y1="278.0" x2="529.0" y2="278.0" stroke="#dededf" stroke-width="1" stroke-linecap="round" /><text x="231.0" y="316.0" font-family="Helvetica Neue, Helvetica, Arial, sans-serif" font-size="16" font-weight="600" fill="#2c2c2e" text-anchor="start">Exercises</text><line x1="231.0" y1="336.0" x2="529.0" y2="336.0" stroke="#dededf" stroke-width="1" stroke-linecap="round" /><text x="231.0" y="374.0" font-family="Helvetica Neue, Helvetica, Arial, sans-serif" font-size="16" font-weight="600" fill="#2c2c2e" text-anchor="start">Explainable Feedback</text><line x1="231.0" y1="394.0" x2="529.0" y2="394.0" stroke="#dededf" stroke-width="1" stroke-linecap="round" /><text x="231.0" y="432.0" font-family="Helvetica Neue, Helvetica, Arial, sans-serif" font-size="16" font-weight="600" fill="#2c2c2e" text-anchor="start">Technology</text><line x1="231.0" y1="452.0" x2="529.0" y2="452.0" stroke="#dededf" stroke-width="1" stroke-linecap="round" /><text x="231.0" y="490.0" font-family="Helvetica Neue, Helvetica, Arial, sans-serif" font-size="16" font-weight="600" fill="#2c2c2e" text-anchor="start">Research</text><line x1="231.0" y1="510.0" x2="529.0" y2="510.0" stroke="#dededf" stroke-width="1" stroke-linecap="round" /><rect x="231.0" y="554.0" width="298.0" height="48.0" rx="24.0" fill="#3a3a3c" stroke="none" /><text x="380.0" y="582.7" font-family="Helvetica Neue, Helvetica, Arial, sans-serif" font-size="13.5" font-weight="600" fill="#ffffff" text-anchor="middle">Analyse Form</text><text x="205.0" y="632.0" font-family="Helvetica Neue, Helvetica, Arial, sans-serif" font-size="11" font-weight="400" fill="#8a8a8f" text-anchor="start" font-style="italic">page content dimmed behind the menu</text><line x1="205.0" y1="659.0" x2="205.0" y2="689.0" stroke="#b4b4b8" stroke-width="1" stroke-dasharray="3 3" stroke-linecap="round" /><text x="212.0" y="668.0" font-family="Helvetica Neue, Helvetica, Arial, sans-serif" font-size="10.5" font-weight="400" fill="#b4b4b8" text-anchor="start" font-style="italic">Menu links scroll smoothly to their section and close the overlay;</text><text x="212.0" y="682.0" font-family="Helvetica Neue, Helvetica, Arial, sans-serif" font-size="10.5" font-weight="400" fill="#b4b4b8" text-anchor="start" font-style="italic">the CTA is the one link that leaves the page.</text></g><text x="44" y="814" font-family="Helvetica Neue, Helvetica, Arial, sans-serif" font-size="10" fill="#b4b4b8">Mid-fidelity wireframe &#183; real interface copy &#183; grey bars represent body text &#183; not to scale</text><defs><clipPath id="clip"><rect x="185.0" y="130" width="390" height="656" /></clipPath></defs></svg>